:FULLY-SPECIFIED
:FORCE-ALL-JOINTS-BE-3DOF
:DEGREES
374
root 6.18429 16.5206 -15.7948 5.9111 -7.19116 -3.72792
lfemur -15.7309 14.1558 -0.0447521
ltibia 64.0823 -0 0
lfoot 2.49192 -9.87185 0.0165315
ltoes 18.1612 -0 0
rfemur -26.0908 -13.7489 26.7592
rtibia 36.4143 -0 0
rfoot -15.9813 3.8742 0.632411
rtoes 7.70981 -0 0
lowerback 2.29226 0.527342 0.889899
upperback 1.69179 0.710367 1.65111
thorax 0.434966 0.356473 1.19339
lowerneck -6.48897 -2.73892 0.24247
upperneck 1.20746 -3.79406 2.98809
head 1.54138 -1.81121 0.723001
lclavicle 5.74938e-15 -6.34222e-16 0
lhumerus -36.0456 -21.3937 88.0629
lradius 47.7134 -0 0
lwrist 12.6317 0 0
lhand -6.9159 6.20357 -0.0467862
lfingers 7.12502 0 0
lthumb 14.3806 30.4853 -0.0147203
rclavicle 5.74938e-15 -6.34222e-16 0
rhumerus -34.9154 3.05621 -82.3837
rradius 62.3585 -0 0
rwrist 2.45043 0 0
rhand -34.8736 -33.9031 -2.20308
rfingers 7.12502 0 0
rthumb -11.9049 -60.9884 -2.82072
375
root 6.13867 16.5251 -15.676 5.90636 -7.60622 -3.80894
lfemur -15.9917 14.1393 -0.0573719
ltibia 64.0632 -0 0
lfoot 2.4009 -9.99685 0.0047184
ltoes 18.4675 -0 0
rfemur -25.8457 -13.689 26.9167
rtibia 36.3109 -0 0
rfoot -16.1338 4.02061 0.671764
rtoes 7.80031 -0 0
lowerback 2.33176 0.567232 0.93505
upperback 1.69402 0.764733 1.65255
thorax 0.415949 0.384324 1.16849
lowerneck -6.49806 -2.66385 0.283184
upperneck 1.23257 -3.69752 2.94781
head 1.54701 -1.76325 0.705183
lclavicle 6.11026e-15 -1.38203e-15 0
lhumerus -35.967 -21.2336 87.8448
lradius 47.6326 -0 0
lwrist 12.6095 0 0
lhand -7.14114 6.11312 -0.0475881
lfingers 7.12502 0 0
lthumb 14.1428 30.3927 -0.0135862
rclavicle 6.11026e-15 -1.38203e-15 0
rhumerus -35.0161 2.96368 -82.5194
rradius 62.0517 -0 0
rwrist 2.51101 0 0
rhand -35.0597 -33.9064 -2.30029
rfingers 7.12502 0 0
rthumb -12.0864 -61.024 -2.95441
376
root 6.09306 16.5295 -15.5572 6.02847 -8.18236 -3.96188
lfemur -16.7032 14.4232 -0.165467
ltibia 64.9016 -0 0
lfoot 2.28523 -10.1674 -0.0163301
ltoes 18.9903 -0 0
rfemur -26.0328 -13.7444 27.5288
rtibia 36.8467 -0 0
rfoot -16.5797 4.1837 0.711801
rtoes 8.08638 -0 0
lowerback 2.42398 0.624881 1.01089
upperback 1.73053 0.843345 1.6741
thorax 0.403655 0.424499 1.14592
lowerneck -6.62211 -2.63223 0.348104
upperneck 1.26423 -3.66236 2.95589
head 1.57504 -1.74496 0.69613
lclavicle 6.47115e-15 -2.12984e-15 0
lhumerus -36.5563 -21.1293 88.9773
lradius 48.3868 -0 0
lwrist 12.8393 0 0
lhand -7.56288 6.10877 -0.0443214
lfingers 7.12502 0 0
lthumb 14.1043 30.8269 -0.00882293
rclavicle 6.47115e-15 -2.12984e-15 0
rhumerus -35.6983 2.99881 -83.88
rradius 62.7067 -0 0
rwrist 2.66304 0 0
rhand -35.5761 -34.3226 -2.34801
rfingers 7.12502 0 0
rthumb -12.2319 -61.8368 -3.01395
377
root 6.04744 16.534 -15.4383 6.30189 -8.95988 -4.203
lfemur -17.962 15.0623 -0.390773
ltibia 66.6959 -0 0
lfoot 2.13618 -10.3923 -0.0479628
ltoes 19.7734 -0 0
rfemur -26.7194 -13.9257 28.6779
rtibia 38.1224 -0 0
rfoot -17.3769 4.36922 0.753038
rtoes 8.60717 -0 0
lowerback 2.58004 0.704693 1.12479
upperback 1.80783 0.952269 1.71937
thorax 0.398782 0.480079 1.12502
lowerneck -6.8824 -2.65004 0.443143
upperneck 1.30376 -3.69728 3.01995
head 1.62955 -1.76052 0.696885
lclavicle 6.83204e-15 -2.87764e-15 0
lhumerus -37.9239 -21.0617 91.5509
lradius 50.0991 -0 0
lwrist 13.3667 0 0
lhand -8.22527 6.20327 -0.0365227
lfingers 7.12502 0 0
lthumb 14.2937 31.875 -4.95416e-05
rclavicle 6.83204e-15 -2.87764e-15 0
rhumerus -37.059 3.17258 -86.56
rradius 64.4393 -0 0
rwrist 2.92626 0 0
rhand -36.4739 -35.2169 -2.33909
rfingers 7.12502 0 0
rthumb -12.3338 -63.5209 -2.98701
378
root 6.00183 16.5384 -15.3195 6.75805 -9.98838 -4.55267
lfemur -19.8941 16.1242 -0.765293
ltibia 69.4843 -0 0
lfoot 1.94033 -10.6772 -0.0913789
ltoes 20.8632 -0 0
rfemur -27.9817 -14.2357 30.4552
rtibia 40.242 -0 0
rfoot -18.5949 4.5818 0.795624
rtoes 9.41303 -0 0
lowerback 2.81409 0.812374 1.28636
upperback 1.93409 1.09937 1.79244
thorax 0.402193 0.555065 1.10421
lowerneck -7.30515 -2.72462 0.576366
upperneck 1.3521 -3.81301 3.14934
head 1.71538 -1.81514 0.708614
lclavicle 7.19293e-15 -3.62545e-15 0
lhumerus -40.1912 -20.9739 95.4843
lradius 52.8763 -0 0
lwrist 14.2486 0 0
lhand -9.1851 6.41155 -0.0235164
lfingers 7.12502 0 0
lthumb 14.7436 33.6326 0.0131741
rclavicle 7.19293e-15 -3.62545e-15 0
rhumerus -39.1983 3.48048 -90.5089
rradius 67.311 -0 0
rwrist 3.32686 0 0
rhand -37.7967 -36.6528 -2.26636
rfingers 7.12502 0 0
rthumb -12.3725 -66.1238 -2.8632
379
root 5.95621 16.5429 -15.2007 9.54319 -20.8765 -6.8271
lfemur -46.2414 20.1137 -13.9394
ltibia 52.4892 0 0
lfoot -8.08989 2.85728 0
ltoes 13.3749 0 0
rfemur -19.9317 -0.463717 31.3962
rtibia 39.4485 0 0
rfoot -22.618 0.618733 0
rtoes 18.1011 0 0
lowerback 4.99316 2.4425 3.91702
upperback 2.47433 3.41131 0.704442
thorax -0.0620885 1.72875 -1.63046
lowerneck -7.36796 -0.887037 3.6871
upperneck -0.141185 -1.54524 1.84803
head 1.17445 -0.735625 -0.0933401
lclavicle 7.55382e-15 -4.37326e-15 0
lhumerus -39.7586 -22.6619 93.3187
lradius 54.8011 0 0
lwrist 17.3402 0 0
lhand -22.1962 2.01352 0
lfingers 7.12502 0 0
lthumb 4.21936 31.9515 0
rclavicle 7.55382e-15 -4.37326e-15 0
rhumerus -38.1913 14.2795 -94.0831
rradius 57.9319 0 0
rwrist 10.2654 0 0
rhand -11.1636 -18.4989 0
rfingers 7.12502 0 0
rthumb 14.8629 -767.946 0
380
root 5.90715 16.5364 -15.0547 10.2756 -23.0201 -7.40465
lfemur -49.2833 21.0025 -14.813
ltibia 55.557 -0 0
lfoot -8.61343 3.60119 0.0121485
ltoes 14.0445 -0 0
rfemur -21.5817 -1.15498 33.8087
rtibia 43.5377 -0 0
rfoot -23.6556 0.57867 -0.0173357
rtoes 20.0841 -0 0
lowerback 5.36109 2.72899 4.14628
upperback 2.64891 3.80086 0.701468
thorax -0.0716671 1.9246 -1.77793
lowerneck -7.93904 -0.921335 4.07669
upperneck -0.0307749 -1.63151 2.04075
head 1.30335 -0.771937 -0.101318
lclavicle 6.41791e-15 -4.84656e-15 0
lhumerus -43.193 -22.3767 98.0727
lradius 58.497 -0 0
lwrist 18.8489 0 0
lhand -23.6981 2.29951 0.00588036
lfingers 7.12502 0 0
lthumb 4.85833 34.5582 0.00506629
rclavicle 6.41791e-15 -4.84656e-15 0
rhumerus -41.4236 14.1137 -98.5985
rradius 61.8214 -0 0
rwrist 11.0273 0 0
rhand -12.2006 -19.9525 -0.00757247
rfingers 7.12502 0 0
rthumb 15.9839 -51.3581 -0.00703419
381
root 5.85809 16.53 -14.9087 10.8135 -24.6277 -7.83699
lfemur -51.4228 21.5836 -15.4559
ltibia 57.5617 -0 0
lfoot -9.00371 4.20307 0.0239191
ltoes 14.4961 -0 0
rfemur -22.7231 -1.65704 35.5323
rtibia 46.462 -0 0
rfoot -24.3651 0.540957 -0.0305842
rtoes 21.5716 -0 0
lowerback 5.62955 2.94806 4.31348
upperback 2.77384 4.09874 0.69253
thorax -0.0806948 2.07429 -1.89284
lowerneck -8.3479 -0.936393 4.37212
upperneck 0.0544937 -1.68213 2.17942
head 1.39713 -0.792172 -0.109158
lclavicle 5.282e-15 -5.31985e-15 0
lhumerus -45.6033 -22.1195 101.002
lradius 60.9924 -0 0
lwrist 19.9445 0 0
lhand -24.7902 2.50072 0.00801929
lfingers 7.12502 0 0
lthumb 5.30363 36.3949 0.00695375
rclavicle 5.282e-15 -5.31985e-15 0
rhumerus -43.7029 13.9855 -101.411
rradius 64.394 -0 0
rwrist 11.5883 0 0
rhand -12.8947 -20.9451 -0.0228289
rfingers 7.12502 0 0
rthumb 16.8428 -53.6542 -0.0211435
382
root 5.80903 16.5235 -14.7628 11.1592 -25.7208 -8.12433
lfemur -52.7838 21.892 -15.8794
ltibia 58.6704 -0 0
lfoot -9.26847 4.65518 0.0356336
ltoes 14.7471 -0 0
rfemur -23.3828 -1.97274 36.6209
rtibia 48.3244 -0 0
rfoot -24.7791 0.507684 -0.0400337
rtoes 22.576 -0 0
lowerback 5.80272 3.09986 4.42251
upperback 2.85131 4.30519 0.679233
thorax -0.0890996 2.17793 -1.97577
lowerneck -8.60093 -0.933683 4.57446
upperneck 0.112843 -1.69912 2.26466
head 1.45626 -0.79737 -0.116905
lclavicle 4.14609e-15 -5.79315e-15 0
lhumerus -47.0826 -21.9402 102.64
lradius 62.4812 -0 0
lwrist 20.6442 0 0
lhand -25.5012 2.61728 0.00680021
lfingers 7.12502 0 0
lthumb 5.5558 37.5233 0.00610313
rclavicle 4.14609e-15 -5.79315e-15 0
rhumerus -45.1178 13.9205 -103.02
rradius 65.8752 -0 0
rwrist 11.9571 0 0
rhand -13.2584 -21.5015 -0.045227
rfingers 7.12502 0 0
rthumb 17.4513 -54.9858 -0.0416809
383
root 5.75997 16.5171 -14.6168 11.3241 -26.342 -8.27429
lfemur -53.4794 21.962 -16.1016
ltibia 59.0232 -0 0
lfoot -9.41884 4.96106 0.047387
ltoes 14.8184 -0 0
rfemur -23.6053 -2.11642 37.1418
rtibia 49.2528 -0 0
rfoot -24.9314 0.479812 -0.0460591
rtoes 23.1325 -0 0
lowerback 5.88828 3.18813 4.47859
upperback 2.88525 4.42534 0.662749
thorax -0.0968555 2.23813 -2.02869
lowerneck -8.7106 -0.915129 4.68952
upperneck 0.145004 -1.68563 2.29984
head 1.48307 -0.789024 -0.124583
lclavicle 3.01018e-15 -6.26645e-15 0
lhumerus -47.7416 -21.8457 103.308
lradius 63.1269 -0 0
lwrist 20.9805 0 0
lhand -25.8685 2.65448 0.00262894
lfingers 7.12502 0 0
lthumb 5.62724 38.0206 0.00289753
rclavicle 3.01018e-15 -6.26645e-15 0
rhumerus -45.7713 13.9209 -103.727
rradius 66.4495 -0 0
rwrist 12.1496 0 0
rhand -13.3201 -21.6623 -0.0739719
rfingers 7.12502 0 0
rthumb 17.8282 -55.4934 -0.0680678
